<?xml version="1.0" encoding="iso-8859-1"?>
<!-- Generator: Adobe Illustrator 19.0.0, SVG Export Plug-In . SVG Version: 6.00 Build 0)  -->
<svg version="1.1" id="Layer_1" xmlns="http://www.w3.org/2000/svg" xmlns:xlink="http://www.w3.org/1999/xlink" x="0px" y="0px"
	 viewBox="0 0 206.816 206.816" style="enable-background:new 0 0 206.816 206.816;" xml:space="preserve">
<g>
	<g>
		<g>
			<path d="M188.97,28.373H17.847C8.006,28.373,0,36.386,0,46.237v49.852c0,9.851,8.006,17.864,17.847,17.864H188.97
				c9.841,0,17.846-8.013,17.846-17.864V46.237C206.817,36.386,198.811,28.373,188.97,28.373z M199.685,96.088
				c0,5.916-4.807,10.732-10.715,10.732H17.847c-5.908,0-10.715-4.816-10.715-10.732V46.237c0-5.916,4.807-10.732,10.715-10.732
				H188.97c5.908,0,10.715,4.816,10.715,10.732V96.088z"/>
			<rect x="35.658" y="88.992" width="131.986" height="7.132"/>
			<rect x="21.395" y="78.294" width="164.027" height="7.132"/>
			<path d="M118.537,136.573l-15.959,15.959l-15.475-15.475c-1.393-1.393-3.649-1.393-5.042,0c-1.393,1.393-1.393,3.649,0,5.042
				l15.475,15.475l-14.298,14.298c-1.393,1.393-1.393,3.649,0,5.042c0.696,0.696,1.609,1.045,2.521,1.045
				c0.912,0,1.825-0.348,2.521-1.045l14.298-14.298l14.782,14.782c0.696,0.696,1.609,1.045,2.521,1.045s1.825-0.348,2.521-1.045
				c1.393-1.393,1.393-3.649,0-5.042l-14.782-14.782l15.959-15.959c1.393-1.393,1.393-3.649,0-5.042S119.93,135.18,118.537,136.573z
				"/>
		</g>
	</g>
</g>
<g>
</g>
<g>
</g>
<g>
</g>
<g>
</g>
<g>
</g>
<g>
</g>
<g>
</g>
<g>
</g>
<g>
</g>
<g>
</g>
<g>
</g>
<g>
</g>
<g>
</g>
<g>
</g>
<g>
</g>
</svg>
