<?xml version="1.0" encoding="iso-8859-1"?>
<!-- Generator: Adobe Illustrator 19.0.0, SVG Export Plug-In . SVG Version: 6.00 Build 0)  -->
<svg version="1.1" id="Capa_1" xmlns="http://www.w3.org/2000/svg" xmlns:xlink="http://www.w3.org/1999/xlink" x="0px" y="0px"
	 viewBox="0 0 463 463" style="enable-background:new 0 0 463 463;" xml:space="preserve">
<path d="M391,159.5C391,71.552,319.449,0,231.5,0S72,71.552,72,159.5c0,79.965,59.154,146.368,136,157.765v91.614l-43.415,5.427
	C152.85,415.773,144,425.798,144,437.624V455.5c0,4.143,3.358,7.5,7.5,7.5h160c4.142,0,7.5-3.357,7.5-7.5v-17.875
	c0-11.827-8.85-21.852-20.585-23.319L255,408.879v-91.614C331.846,305.868,391,239.465,391,159.5z M87,159.5
	C87,79.822,151.822,15,231.5,15S376,79.822,376,159.5c0,71.677-52.461,131.321-121,142.579v-75.144l7.729,8.833
	c7.68,8.777,18.77,14.033,30.425,14.421c0.465,0.016,0.928,0.023,1.391,0.023c11.168,0,22.009-4.472,29.947-12.41
	c3.938-3.938,6.09-9.39,5.905-14.956c-0.185-5.565-2.695-10.861-6.887-14.529l-54.638-47.808l37.937-33.195
	c8.777-7.68,14.034-18.77,14.422-30.425c0.388-11.656-4.119-23.07-12.387-31.338c-3.938-3.938-9.383-6.105-14.956-5.906
	c-5.566,0.186-10.862,2.695-14.53,6.888L231.55,121.17l-33.195-37.937c-7.68-8.777-18.77-14.033-30.425-14.421
	c-11.652-0.381-23.07,4.119-31.338,12.387c-3.938,3.938-6.09,9.39-5.905,14.956c0.186,5.565,2.695,10.861,6.887,14.529
	l54.638,47.808l-37.937,33.195c-8.777,7.68-14.034,18.77-14.421,30.425c-0.388,11.656,4.119,23.07,12.386,31.338
	c3.781,3.782,8.958,5.917,14.292,5.917c0.221,0,0.443-0.003,0.664-0.011c5.566-0.186,10.863-2.695,14.531-6.888L208,222.44v79.639
	C139.461,290.821,87,231.177,87,159.5z M231.5,143c9.098,0,16.5,7.402,16.5,16.5s-7.402,16.5-16.5,16.5s-16.5-7.402-16.5-16.5
	S222.402,143,231.5,143z M241.929,189.218c8.032-2.827,14.58-8.82,18.143-16.477l53.56,46.865c1.095,0.958,1.725,2.286,1.773,3.74
	s-0.491,2.821-1.542,3.871c-5.399,5.4-12.583,8.241-20.21,7.98c-7.634-0.254-14.607-3.56-19.636-9.307L241.929,189.218z
	 M243.442,130.358l47.205-53.949c0.958-1.095,2.286-1.725,3.74-1.773c1.468-0.041,2.821,0.492,3.872,1.543
	c5.4,5.399,8.234,12.577,7.98,20.21c-0.254,7.634-3.56,14.606-9.308,19.636l-36.225,31.697
	C257.528,139.868,251.274,133.579,243.442,130.358z M202.393,147.469l-54.942-48.074c-1.095-0.958-1.725-2.286-1.773-3.74
	s0.491-2.821,1.542-3.871c5.4-5.4,12.59-8.239,20.21-7.98c7.633,0.254,14.607,3.56,19.636,9.307l32.567,37.219
	C211.85,133.506,205.613,139.707,202.393,147.469z M201.813,170.021c2.83,7.961,8.773,14.454,16.361,18.012l-47.738,54.557
	c-0.958,1.095-2.287,1.725-3.741,1.773c-1.457,0.063-2.82-0.491-3.871-1.543c-5.4-5.399-8.234-12.577-7.98-20.21
	c0.254-7.634,3.56-14.606,9.308-19.636L201.813,170.021z M229.534,197.83L240,209.792v93.951c-2.814,0.164-5.646,0.257-8.5,0.257
	s-5.686-0.093-8.5-0.257v-98.446L229.534,197.83z M304,437.625V448H159v-10.376c0-4.277,3.201-7.903,7.446-8.434l49.519-6.19h31.067
	l49.522,6.19C300.799,429.721,304,433.347,304,437.625z M240,408h-17v-89.227c2.815,0.149,5.648,0.227,8.5,0.227
	s5.685-0.079,8.5-0.227V408z"/>
<g>
</g>
<g>
</g>
<g>
</g>
<g>
</g>
<g>
</g>
<g>
</g>
<g>
</g>
<g>
</g>
<g>
</g>
<g>
</g>
<g>
</g>
<g>
</g>
<g>
</g>
<g>
</g>
<g>
</g>
</svg>
