<?xml version="1.0" encoding="iso-8859-1"?>
<!-- Generator: Adobe Illustrator 18.0.0, SVG Export Plug-In . SVG Version: 6.00 Build 0)  -->
<!DOCTYPE svg PUBLIC "-//W3C//DTD SVG 1.1//EN" "http://www.w3.org/Graphics/SVG/1.1/DTD/svg11.dtd">
<svg version="1.1" id="Capa_1" xmlns="http://www.w3.org/2000/svg" xmlns:xlink="http://www.w3.org/1999/xlink" x="0px" y="0px"
	 viewBox="0 0 512 512" style="enable-background:new 0 0 512 512;" xml:space="preserve">
<g>
	<path d="M320,132.219V64c0-17.672-14.328-32-32-32h-64c-17.672,0-32,14.328-32,32v68.219c-28.969,20.266-48,53.82-48,91.781
		c0,61.758,50.25,112,112,112s112-50.242,112-112C368,186.039,348.969,152.484,320,132.219z"/>
	<path d="M480,192h-48c-17.672,0-32,14.328-32,32s14.328,32,32,32h48c17.672,0,32-14.328,32-32S497.672,192,480,192z"/>
	<path d="M112,224c0-17.672-14.328-32-32-32H32c-17.672,0-32,14.328-32,32s14.328,32,32,32h48C97.672,256,112,241.672,112,224z"/>
	<path d="M380.453,131.547c8.188,0,16.375-3.125,22.625-9.375l33.938-33.938c12.5-12.492,12.5-32.758,0-45.25
		c-12.5-12.5-32.75-12.5-45.25,0l-33.938,33.937c-12.5,12.492-12.5,32.758,0,45.25C364.078,128.422,372.266,131.547,380.453,131.547
		z"/>
	<path d="M108.922,325.828l-33.938,33.938c-12.5,12.492-12.5,32.758,0,45.25c6.25,6.25,14.438,9.375,22.625,9.375
		s16.375-3.125,22.625-9.375l33.937-33.938c12.5-12.492,12.5-32.758,0-45.25C141.672,313.328,121.422,313.328,108.922,325.828z"/>
	<path d="M403.078,325.828c-12.5-12.5-32.75-12.5-45.25,0c-12.5,12.492-12.5,32.758,0,45.25l33.938,33.938
		c6.25,6.25,14.438,9.375,22.625,9.375s16.375-3.125,22.625-9.375c12.5-12.492,12.5-32.758,0-45.25L403.078,325.828z"/>
	<path d="M108.922,122.172c6.25,6.25,14.438,9.375,22.625,9.375s16.375-3.125,22.625-9.375c12.5-12.492,12.5-32.758,0-45.25
		l-33.937-33.937c-12.5-12.5-32.75-12.5-45.25,0c-12.5,12.492-12.5,32.758,0,45.25L108.922,122.172z"/>
	<path d="M256,368c-17.672,0-32,14.328-32,32v48c0,17.672,14.328,32,32,32c17.672,0,32-14.328,32-32v-48
		C288,382.328,273.672,368,256,368z"/>
</g>
<g>
</g>
<g>
</g>
<g>
</g>
<g>
</g>
<g>
</g>
<g>
</g>
<g>
</g>
<g>
</g>
<g>
</g>
<g>
</g>
<g>
</g>
<g>
</g>
<g>
</g>
<g>
</g>
<g>
</g>
</svg>
